# xmcd
#
# Track frame offsets: 
#        150
#        11962
#        24935
#        35785
#        46655
#        57667
#        69952
#        82370
#        95172
#        106782
#        118880
#        130862
#        142525
#        153217
#        164067
#        175832
#        187775
#        198790
#        209262
#        220790
#        230937
#        243100
#        255402
#        266722
#        279655
#        291600
#        303932
#
# Disc length: 4212 seconds
#
# Revision: 0
# Processed by: cddbd v1.5.2PL0 Copyright (c) Steve Scherf et al.
# Submitted via: ExactAudioCopy v0.95b4
#
DISCID=8b10721b
DTITLE=Bob Wills and His Texas Playboys - Legends of Country Music {Di
DTITLE=sc 2}
DYEAR=2006
DGENRE=Western
TTITLE0=Steel Guitar Stomp
TTITLE1=Rosetta
TTITLE2=Blue Yodel #1
TTITLE3=I'm a Ding Dong Daddy (From Dumas)
TTITLE4=Oozlin' Daddy Blues
TTITLE5=Black Rider
TTITLE6=Down Hearted Blues
TTITLE7=Pray for the Lights to Go Out
TTITLE8=San Antonio Rose
TTITLE9=Silver Bells
TTITLE10=Beaumont Rag
TTITLE11=Whoa Babe
TTITLE12=Ida Red
TTITLE13=Yearning
TTITLE14=I Wonder If You Feel the Way I Do
TTITLE15=Prosperity Special
TTITLE16=You're Okay
TTITLE17=Liza Pull Down the Shades
TTITLE18=That's What I Like 'Bout the South
TTITLE19=My Window Faces the South
TTITLE20=Don't Let the Deal Go Down
TTITLE21=Lone Star Rag
TTITLE22=That Brownskin Gal
TTITLE23=Corrine Corrina
TTITLE24=Time Changes Everything
TTITLE25=Bob Wills Special
TTITLE26=Big Beaver
EXTD=
EXTT0=
EXTT1=
EXTT2=
EXTT3=
EXTT4=
EXTT5=
EXTT6=
EXTT7=
EXTT8=
EXTT9=
EXTT10=
EXTT11=
EXTT12=
EXTT13=
EXTT14=
EXTT15=
EXTT16=
EXTT17=
EXTT18=
EXTT19=
EXTT20=
EXTT21=
EXTT22=
EXTT23=
EXTT24=
EXTT25=
EXTT26=
PLAYORDER=
